<?xml version="1.0" encoding="iso-8859-1"?>
<!-- Generator: Adobe Illustrator 16.0.0, SVG Export Plug-In . SVG Version: 6.00 Build 0)  -->
<!DOCTYPE svg PUBLIC "-//W3C//DTD SVG 1.1//EN" "http://www.w3.org/Graphics/SVG/1.1/DTD/svg11.dtd">
<svg version="1.1" id="Capa_1" xmlns="http://www.w3.org/2000/svg" xmlns:xlink="http://www.w3.org/1999/xlink" x="0px" y="0px"
	 width="928px" height="928px" viewBox="0 0 928 928" style="enable-background:new 0 0 928 928;" xml:space="preserve">
<g>
	<path d="M35.2,229.9l407.4,276.8c13,8.8,29.799,8.8,42.7,0l407.4-276.8c20.399-13.8,10.6-45.7-14-45.7H49.2
		C24.6,184.2,14.8,216,35.2,229.9z"/>
	<path d="M888.899,273.6l-248,168.5L885.6,678.5c15.9,15.3,42.4,4.101,42.4-18V294.3C927.899,274.2,905.5,262.4,888.899,273.6z"/>
	<path d="M42.3,678.5L287,442.101L39,273.6c-16.6-11.3-39,0.6-39,20.7v366.2C-0.1,682.601,26.4,693.8,42.3,678.5z"/>
	<path d="M840.899,743.8c22.5,0,33.5-27.399,17.4-43l-247-238.6l-109.4,74.3c-11.5,7.8-24.699,11.7-37.899,11.7
		c-13.2,0-26.4-3.9-37.9-11.7l-109.5-74.3l-247,238.6c-16.2,15.601-5.1,43,17.4,43H840.899z"/>
</g>
<g>
</g>
<g>
</g>
<g>
</g>
<g>
</g>
<g>
</g>
<g>
</g>
<g>
</g>
<g>
</g>
<g>
</g>
<g>
</g>
<g>
</g>
<g>
</g>
<g>
</g>
<g>
</g>
<g>
</g>
</svg>
