<?xml version="1.0"?>
<svg xmlns="http://www.w3.org/2000/svg" viewBox="0 0 50 50" width="50px" height="50px">
    <path style="fill:#fff" d="M 9 4 C 6.24 4 4 6.24 4 9 L 4 41 C 4 43.76 6.24 46 9 46 L 41 46 C 43.76 46 46 43.76 46 41 L 46 9 C 46 6.24 43.76 4 41 4 L 9 4 z M 25 9 C 29.42 9 33 12.58 33 17 C 33 21.42 29.42 25 25 25 C 20.58 25 17 21.42 17 17 C 17 12.58 20.58 9 25 9 z M 25 13 A 4 4 0 0 0 21 17 A 4 4 0 0 0 25 21 A 4 4 0 0 0 29 17 A 4 4 0 0 0 25 13 z M 33 26.490234 C 33.63 26.490234 34.250625 26.789609 34.640625 27.349609 C 35.270625 28.249609 35.050625 29.500859 34.140625 30.130859 C 32.640625 31.180859 30.99 31.939922 29.25 32.419922 L 34.410156 37.589844 C 35.200156 38.369844 35.200156 39.630156 34.410156 40.410156 C 34.020156 40.800156 33.51 41 33 41 C 32.49 41 31.979844 40.800156 31.589844 40.410156 L 25 33.830078 L 18.410156 40.410156 C 18.020156 40.800156 17.51 41 17 41 C 16.49 41 15.979844 40.800156 15.589844 40.410156 C 14.799844 39.630156 14.799844 38.369844 15.589844 37.589844 L 20.75 32.419922 C 19.02 31.939922 17.369141 31.190625 15.869141 30.140625 C 14.969141 29.510625 14.739141 28.269375 15.369141 27.359375 C 15.759141 26.799375 16.379531 26.5 17.019531 26.5 C 17.409531 26.5 17.810156 26.619375 18.160156 26.859375 C 20.170156 28.259375 22.54 29 25 29 C 27.47 29 29.839375 28.259609 31.859375 26.849609 C 32.199375 26.609609 32.6 26.490234 33 26.490234 z"/>
</svg>
