<svg xmlns:dc="http://purl.org/dc/elements/1.1/" xmlns:cc="http://creativecommons.org/ns#" xmlns:rdf="http://www.w3.org/1999/02/22-rdf-syntax-ns#" xmlns:svg="http://www.w3.org/2000/svg" xmlns="http://www.w3.org/2000/svg" xmlns:xlink="http://www.w3.org/1999/xlink" xmlns:sodipodi="http://sodipodi.sourceforge.net/DTD/sodipodi-0.dtd" xmlns:inkscape="http://www.inkscape.org/namespaces/inkscape" version="1.1" id="svg4264" viewBox="0 0 318.88995 156.66591" height="156.66591" width="318.88995" inkscape:version="0.91 r13725" sodipodi:docname="wood-plate.svg">
  <sodipodi:namedview pagecolor="#ffffff" bordercolor="#666666" borderopacity="1" objecttolerance="10" gridtolerance="10" guidetolerance="10" inkscape:pageopacity="0" inkscape:pageshadow="2" inkscape:window-width="1920" inkscape:window-height="993" id="namedview250" showgrid="false" inkscape:zoom="2.6" inkscape:cx="224.70185" inkscape:cy="-2.5052461" inkscape:window-x="0" inkscape:window-y="24" inkscape:window-maximized="1" inkscape:current-layer="layer1"/>

  <style id="style3">
      #path7279:hover {
          color: blue;
      }
  </style>

  <defs id="defs4266">
    <radialGradient fx="0" fy="0" cx="0" cy="0" r="1" gradientUnits="userSpaceOnUse" gradientTransform="matrix(0.943633,307.051,1250.55,-4.01044,5094.82,455.21)" spreadMethod="pad" id="radialGradient155476">
      <stop style="stop-opacity:1;stop-color:#bf7e2e" offset="0" id="stop155478"/>
      <stop id="stop155494" offset="0.13898583" style="stop-color:#b36b23;stop-opacity:1"/>
      <stop style="stop-opacity:1;stop-color:#be802d" offset="0.271442" id="stop155480"/>
      <stop id="stop155492" offset="0.40916488" style="stop-color:#c68332;stop-opacity:1"/>
      <stop id="stop155484" offset="0.5737341" style="stop-color:#cd9639;stop-opacity:1"/>
      <stop style="stop-color:#c77b27;stop-opacity:1" offset="0.67913765" id="stop155490"/>
      <stop style="stop-color:#bb6d23;stop-opacity:1" offset="0.78265876" id="stop155486"/>
      <stop id="stop155488" offset="0.88597363" style="stop-color:#cd9035;stop-opacity:1"/>
      <stop style="stop-opacity:1;stop-color:#cc8c34" offset="1" id="stop155482"/>
    </radialGradient>
    <radialGradient fx="0" fy="0" cx="0" cy="0" r="1" gradientUnits="userSpaceOnUse" gradientTransform="matrix(0.943633,307.051,1250.55,-4.01044,5094.82,455.21)" spreadMethod="pad" id="radialGradient6514">
      <stop style="stop-opacity:1;stop-color:#bf7e2e" offset="0" id="stop6516"/>
      <stop id="stop6518" offset="0.13898583" style="stop-color:#b36b23;stop-opacity:1"/>
      <stop style="stop-opacity:1;stop-color:#be802d" offset="0.271442" id="stop6520"/>
      <stop id="stop6522" offset="0.40916488" style="stop-color:#c68332;stop-opacity:1"/>
      <stop id="stop6524" offset="0.5737341" style="stop-color:#cd9639;stop-opacity:1"/>
      <stop style="stop-color:#c77b27;stop-opacity:1" offset="0.67913765" id="stop6526"/>
      <stop style="stop-color:#bb6d23;stop-opacity:1" offset="0.78265876" id="stop6528"/>
      <stop id="stop6530" offset="0.88597363" style="stop-color:#cd9035;stop-opacity:1"/>
      <stop style="stop-opacity:1;stop-color:#cc8c34" offset="1" id="stop6532"/>
    </radialGradient>
    <radialGradient fx="0" fy="0" cx="0" cy="0" r="1" gradientUnits="userSpaceOnUse" gradientTransform="matrix(0.943633,307.051,1250.55,-4.01044,5094.82,455.21)" spreadMethod="pad" id="radialGradient6535">
      <stop style="stop-opacity:1;stop-color:#bf7e2e" offset="0" id="stop6537"/>
      <stop id="stop6539" offset="0.13898583" style="stop-color:#b36b23;stop-opacity:1"/>
      <stop style="stop-opacity:1;stop-color:#be802d" offset="0.271442" id="stop6541"/>
      <stop id="stop6543" offset="0.40916488" style="stop-color:#c68332;stop-opacity:1"/>
      <stop id="stop6545" offset="0.5737341" style="stop-color:#cd9639;stop-opacity:1"/>
      <stop style="stop-color:#c77b27;stop-opacity:1" offset="0.67913765" id="stop6547"/>
      <stop style="stop-color:#bb6d23;stop-opacity:1" offset="0.78265876" id="stop6549"/>
      <stop id="stop6551" offset="0.88597363" style="stop-color:#cd9035;stop-opacity:1"/>
      <stop style="stop-opacity:1;stop-color:#cc8c34" offset="1" id="stop6553"/>
    </radialGradient>
    <radialGradient fx="0" fy="0" cx="0" cy="0" r="1" gradientUnits="userSpaceOnUse" gradientTransform="matrix(0.943633,307.051,1250.55,-4.01044,5094.82,455.21)" spreadMethod="pad" id="radialGradient6556">
      <stop style="stop-opacity:1;stop-color:#bf7e2e" offset="0" id="stop6558"/>
      <stop id="stop6560" offset="0.13898583" style="stop-color:#b36b23;stop-opacity:1"/>
      <stop style="stop-opacity:1;stop-color:#be802d" offset="0.271442" id="stop6562"/>
      <stop id="stop6564" offset="0.40916488" style="stop-color:#c68332;stop-opacity:1"/>
      <stop id="stop6566" offset="0.5737341" style="stop-color:#cd9639;stop-opacity:1"/>
      <stop style="stop-color:#c77b27;stop-opacity:1" offset="0.67913765" id="stop6568"/>
      <stop style="stop-color:#bb6d23;stop-opacity:1" offset="0.78265876" id="stop6570"/>
      <stop id="stop6572" offset="0.88597363" style="stop-color:#cd9035;stop-opacity:1"/>
      <stop style="stop-opacity:1;stop-color:#cc8c34" offset="1" id="stop6574"/>
    </radialGradient>
    <radialGradient fx="0" fy="0" cx="0" cy="0" r="1" gradientUnits="userSpaceOnUse" gradientTransform="matrix(0.943633,307.051,1250.55,-4.01044,5094.82,455.21)" spreadMethod="pad" id="radialGradient6577">
      <stop style="stop-opacity:1;stop-color:#bf7e2e" offset="0" id="stop6579"/>
      <stop id="stop6581" offset="0.13898583" style="stop-color:#b36b23;stop-opacity:1"/>
      <stop style="stop-opacity:1;stop-color:#be802d" offset="0.271442" id="stop6583"/>
      <stop id="stop6585" offset="0.40916488" style="stop-color:#c68332;stop-opacity:1"/>
      <stop id="stop6587" offset="0.5737341" style="stop-color:#cd9639;stop-opacity:1"/>
      <stop style="stop-color:#c77b27;stop-opacity:1" offset="0.67913765" id="stop6589"/>
      <stop style="stop-color:#bb6d23;stop-opacity:1" offset="0.78265876" id="stop6591"/>
      <stop id="stop6593" offset="0.88597363" style="stop-color:#cd9035;stop-opacity:1"/>
      <stop style="stop-opacity:1;stop-color:#cc8c34" offset="1" id="stop6595"/>
    </radialGradient>
    <radialGradient fx="0" fy="0" cx="0" cy="0" r="1" gradientUnits="userSpaceOnUse" gradientTransform="matrix(0.943633,307.051,1250.55,-4.01044,5094.82,455.21)" spreadMethod="pad" id="radialGradient155476-1">
      <stop style="stop-opacity:1;stop-color:#bf7e2e" offset="0" id="stop155478-0"/>
      <stop id="stop155494-7" offset="0.13898583" style="stop-color:#b36b23;stop-opacity:1"/>
      <stop style="stop-opacity:1;stop-color:#be802d" offset="0.271442" id="stop155480-4"/>
      <stop id="stop155492-2" offset="0.40916488" style="stop-color:#c68332;stop-opacity:1"/>
      <stop id="stop155484-9" offset="0.5737341" style="stop-color:#cd9639;stop-opacity:1"/>
      <stop style="stop-color:#c77b27;stop-opacity:1" offset="0.67913765" id="stop155490-5"/>
      <stop style="stop-color:#bb6d23;stop-opacity:1" offset="0.78265876" id="stop155486-7"/>
      <stop id="stop155488-7" offset="0.88597363" style="stop-color:#cd9035;stop-opacity:1"/>
      <stop style="stop-opacity:1;stop-color:#cc8c34" offset="1" id="stop155482-5"/>
    </radialGradient>
    <linearGradient gradientTransform="translate(0,2)" gradientUnits="userSpaceOnUse" y2="940.3324" x2="201.39224" y1="901.23895" x1="202.34071" id="linearGradient7164" xlink:href="#radialGradient6577"/>
    <linearGradient gradientTransform="matrix(-1,0,0,1,374.40325,-0.27523097)" gradientUnits="userSpaceOnUse" y2="983.9621" x2="161.55641" y1="947.71405" x1="161.24025" id="linearGradient7184" xlink:href="#radialGradient6535"/>
    <radialGradient fx="0" fy="0" cx="0" cy="0" r="1" gradientUnits="userSpaceOnUse" gradientTransform="matrix(0.943633,307.051,1250.55,-4.01044,5094.82,455.21)" spreadMethod="pad" id="radialGradient6577-3">
      <stop style="stop-opacity:1;stop-color:#bf7e2e" offset="0" id="stop6579-1"/>
      <stop id="stop6581-0" offset="0.13898583" style="stop-color:#b36b23;stop-opacity:1"/>
      <stop style="stop-opacity:1;stop-color:#be802d" offset="0.271442" id="stop6583-7"/>
      <stop id="stop6585-5" offset="0.40916488" style="stop-color:#c68332;stop-opacity:1"/>
      <stop id="stop6587-4" offset="0.5737341" style="stop-color:#cd9639;stop-opacity:1"/>
      <stop style="stop-color:#c77b27;stop-opacity:1" offset="0.67913765" id="stop6589-9"/>
      <stop style="stop-color:#bb6d23;stop-opacity:1" offset="0.78265876" id="stop6591-2"/>
      <stop id="stop6593-4" offset="0.88597363" style="stop-color:#cd9035;stop-opacity:1"/>
      <stop style="stop-opacity:1;stop-color:#cc8c34" offset="1" id="stop6595-9"/>
    </radialGradient>
    <radialGradient fx="0" fy="0" cx="0" cy="0" r="1" gradientUnits="userSpaceOnUse" gradientTransform="matrix(0.943633,307.051,1250.55,-4.01044,5094.82,455.21)" spreadMethod="pad" id="radialGradient6577-4">
      <stop style="stop-opacity:1;stop-color:#bf7e2e" offset="0" id="stop6579-2"/>
      <stop id="stop6581-09" offset="0.13898583" style="stop-color:#b36b23;stop-opacity:1"/>
      <stop style="stop-opacity:1;stop-color:#be802d" offset="0.271442" id="stop6583-5"/>
      <stop id="stop6585-0" offset="0.40916488" style="stop-color:#c68332;stop-opacity:1"/>
      <stop id="stop6587-42" offset="0.5737341" style="stop-color:#cd9639;stop-opacity:1"/>
      <stop style="stop-color:#c77b27;stop-opacity:1" offset="0.67913765" id="stop6589-2"/>
      <stop style="stop-color:#bb6d23;stop-opacity:1" offset="0.78265876" id="stop6591-9"/>
      <stop id="stop6593-7" offset="0.88597363" style="stop-color:#cd9035;stop-opacity:1"/>
      <stop style="stop-opacity:1;stop-color:#cc8c34" offset="1" id="stop6595-2"/>
    </radialGradient>
    <linearGradient gradientTransform="matrix(0,0.50594325,-0.49492651,0,743.05675,869.52371)" gradientUnits="userSpaceOnUse" y2="940.3324" x2="201.39224" y1="857.84564" x1="200.64503" id="linearGradient7164-5" xlink:href="#radialGradient6577-6"/>
    <radialGradient fx="0" fy="0" cx="0" cy="0" r="1" gradientUnits="userSpaceOnUse" gradientTransform="matrix(0.943633,307.051,1250.55,-4.01044,5094.82,455.21)" spreadMethod="pad" id="radialGradient6577-6">
      <stop style="stop-opacity:1;stop-color:#bf7e2e" offset="0" id="stop6579-9"/>
      <stop id="stop6581-3" offset="0.13898583" style="stop-color:#b36b23;stop-opacity:1"/>
      <stop style="stop-opacity:1;stop-color:#be802d" offset="0.271442" id="stop6583-1"/>
      <stop id="stop6585-6" offset="0.40916488" style="stop-color:#c68332;stop-opacity:1"/>
      <stop id="stop6587-9" offset="0.5737341" style="stop-color:#cd9639;stop-opacity:1"/>
      <stop style="stop-color:#c77b27;stop-opacity:1" offset="0.67913765" id="stop6589-93"/>
      <stop style="stop-color:#bb6d23;stop-opacity:1" offset="0.78265876" id="stop6591-4"/>
      <stop id="stop6593-45" offset="0.88597363" style="stop-color:#cd9035;stop-opacity:1"/>
      <stop style="stop-opacity:1;stop-color:#cc8c34" offset="1" id="stop6595-95"/>
    </radialGradient>
    <linearGradient gradientTransform="matrix(0,0.49769169,-0.49492651,0,543.73836,871.21881)" gradientUnits="userSpaceOnUse" y2="940.3324" x2="201.39224" y1="857.84564" x1="200.64503" id="linearGradient7164-5-7" xlink:href="#radialGradient6577-6-8"/>
    <radialGradient fx="0" fy="0" cx="0" cy="0" r="1" gradientUnits="userSpaceOnUse" gradientTransform="matrix(0.943633,307.051,1250.55,-4.01044,5094.82,455.21)" spreadMethod="pad" id="radialGradient6577-6-8">
      <stop style="stop-opacity:1;stop-color:#bf7e2e" offset="0" id="stop6579-9-7"/>
      <stop id="stop6581-3-5" offset="0.13898583" style="stop-color:#b36b23;stop-opacity:1"/>
      <stop style="stop-opacity:1;stop-color:#be802d" offset="0.271442" id="stop6583-1-3"/>
      <stop id="stop6585-6-4" offset="0.40916488" style="stop-color:#c68332;stop-opacity:1"/>
      <stop id="stop6587-9-1" offset="0.5737341" style="stop-color:#cd9639;stop-opacity:1"/>
      <stop style="stop-color:#c77b27;stop-opacity:1" offset="0.67913765" id="stop6589-93-0"/>
      <stop style="stop-color:#bb6d23;stop-opacity:1" offset="0.78265876" id="stop6591-4-8"/>
      <stop id="stop6593-45-9" offset="0.88597363" style="stop-color:#cd9035;stop-opacity:1"/>
      <stop style="stop-opacity:1;stop-color:#cc8c34" offset="1" id="stop6595-95-9"/>
    </radialGradient>
    <radialGradient fx="0" fy="0" cx="0" cy="0" r="1" gradientUnits="userSpaceOnUse" gradientTransform="matrix(0.943633,307.051,1250.55,-4.01044,5094.82,455.21)" spreadMethod="pad" id="radialGradient6535-6">
      <stop style="stop-opacity:1;stop-color:#bf7e2e" offset="0" id="stop6537-5"/>
      <stop id="stop6539-1" offset="0.13898583" style="stop-color:#b36b23;stop-opacity:1"/>
      <stop style="stop-opacity:1;stop-color:#be802d" offset="0.271442" id="stop6541-2"/>
      <stop id="stop6543-3" offset="0.40916488" style="stop-color:#c68332;stop-opacity:1"/>
      <stop id="stop6545-3" offset="0.5737341" style="stop-color:#cd9639;stop-opacity:1"/>
      <stop style="stop-color:#c77b27;stop-opacity:1" offset="0.67913765" id="stop6547-8"/>
      <stop style="stop-color:#bb6d23;stop-opacity:1" offset="0.78265876" id="stop6549-6"/>
      <stop id="stop6551-7" offset="0.88597363" style="stop-color:#cd9035;stop-opacity:1"/>
      <stop style="stop-opacity:1;stop-color:#cc8c34" offset="1" id="stop6553-9"/>
    </radialGradient>
    <linearGradient y2="983.9621" x2="161.55641" y1="947.71405" x1="161.24025" gradientTransform="matrix(-1,0,0,1,374.40325,-0.27523097)" gradientUnits="userSpaceOnUse" id="linearGradient8248" xlink:href="#radialGradient6535"/>
    <radialGradient fx="0" fy="0" cx="0" cy="0" r="1" gradientUnits="userSpaceOnUse" gradientTransform="matrix(0.943633,307.051,1250.55,-4.01044,5094.82,455.21)" spreadMethod="pad" id="radialGradient6535-3">
      <stop style="stop-opacity:1;stop-color:#bf7e2e" offset="0" id="stop6537-6"/>
      <stop id="stop6539-7" offset="0.13898583" style="stop-color:#b36b23;stop-opacity:1"/>
      <stop style="stop-opacity:1;stop-color:#be802d" offset="0.271442" id="stop6541-5"/>
      <stop id="stop6543-35" offset="0.40916488" style="stop-color:#c68332;stop-opacity:1"/>
      <stop id="stop6545-6" offset="0.5737341" style="stop-color:#cd9639;stop-opacity:1"/>
      <stop style="stop-color:#c77b27;stop-opacity:1" offset="0.67913765" id="stop6547-2"/>
      <stop style="stop-color:#bb6d23;stop-opacity:1" offset="0.78265876" id="stop6549-9"/>
      <stop id="stop6551-1" offset="0.88597363" style="stop-color:#cd9035;stop-opacity:1"/>
      <stop style="stop-opacity:1;stop-color:#cc8c34" offset="1" id="stop6553-2"/>
    </radialGradient>
    <radialGradient fx="0" fy="0" cx="0" cy="0" r="1" gradientUnits="userSpaceOnUse" gradientTransform="matrix(0.943633,307.051,1250.55,-4.01044,5094.82,455.21)" spreadMethod="pad" id="radialGradient6535-9">
      <stop style="stop-opacity:1;stop-color:#bf7e2e" offset="0" id="stop6537-3"/>
      <stop id="stop6539-6" offset="0.13898583" style="stop-color:#b36b23;stop-opacity:1"/>
      <stop style="stop-opacity:1;stop-color:#be802d" offset="0.271442" id="stop6541-0"/>
      <stop id="stop6543-6" offset="0.40916488" style="stop-color:#c68332;stop-opacity:1"/>
      <stop id="stop6545-2" offset="0.5737341" style="stop-color:#cd9639;stop-opacity:1"/>
      <stop style="stop-color:#c77b27;stop-opacity:1" offset="0.67913765" id="stop6547-6"/>
      <stop style="stop-color:#bb6d23;stop-opacity:1" offset="0.78265876" id="stop6549-1"/>
      <stop id="stop6551-8" offset="0.88597363" style="stop-color:#cd9035;stop-opacity:1"/>
      <stop style="stop-opacity:1;stop-color:#cc8c34" offset="1" id="stop6553-7"/>
    </radialGradient>
    <linearGradient y2="983.9621" x2="161.55641" y1="947.71405" x1="161.24025" gradientTransform="matrix(-1,0,0,1,453.85264,8.2025215)" gradientUnits="userSpaceOnUse" id="linearGradient4437" xlink:href="#radialGradient6535"/>
    <radialGradient fx="0" fy="0" cx="0" cy="0" r="1" gradientUnits="userSpaceOnUse" gradientTransform="matrix(0.943633,307.051,1250.55,-4.01044,5094.82,455.21)" spreadMethod="pad" id="radialGradient6535-2">
      <stop style="stop-opacity:1;stop-color:#bf7e2e" offset="0" id="stop6537-37"/>
      <stop id="stop6539-5" offset="0.13898583" style="stop-color:#b36b23;stop-opacity:1"/>
      <stop style="stop-opacity:1;stop-color:#be802d" offset="0.271442" id="stop6541-9"/>
      <stop id="stop6543-2" offset="0.40916488" style="stop-color:#c68332;stop-opacity:1"/>
      <stop id="stop6545-28" offset="0.5737341" style="stop-color:#cd9639;stop-opacity:1"/>
      <stop style="stop-color:#c77b27;stop-opacity:1" offset="0.67913765" id="stop6547-9"/>
      <stop style="stop-color:#bb6d23;stop-opacity:1" offset="0.78265876" id="stop6549-7"/>
      <stop id="stop6551-3" offset="0.88597363" style="stop-color:#cd9035;stop-opacity:1"/>
      <stop style="stop-opacity:1;stop-color:#cc8c34" offset="1" id="stop6553-6"/>
    </radialGradient>
    <linearGradient y2="983.9621" x2="161.55641" y1="947.71405" x1="161.24025" gradientTransform="matrix(-1,0,0,1,326.19684,-168.72711)" gradientUnits="userSpaceOnUse" id="linearGradient4512" xlink:href="#radialGradient6535"/>
  </defs>
  <metadata id="metadata4269">
    <rdf:RDF>
      <cc:Work rdf:about="">
        <dc:format>image/svg+xml</dc:format>
        <dc:type rdf:resource="http://purl.org/dc/dcmitype/StillImage"/>
        <dc:title/>
      </cc:Work>
    </rdf:RDF>
  </metadata>
  <g transform="translate(-26.301109,-883.87719)" id="layer1">
    <path id="path4812-3" d="m 296.80733,889.07417 c 0.1511,77.44981 -0.80523,115.84143 -0.46662,135.27723 l 2.65045,15.4534 -6.63504,0.057 -1.6586,-0.043 -2.47797,-13.7691 0.11103,13.4832 -2.60858,0.5194 -3.8793,-0.4745 -1.77369,0.1194 0.2938,-4.589 -1.20874,5.435 0.62023,-0.6138 -4.0337,-0.4671 1.13223,-152.35499 2.77422,-1.60498 c 3.04425,0.62835 -3.42517,-2.60843 6.89563,3.60088 l 0.97317,0.98571 -0.50503,15.86588 0.80037,-16.46794 2.62684,0.0706 0.95799,0.77386 0.23762,4.2618 -1.84977,-8.5657 3.45149,-0.50568 c 0.76643,0.004 3.57195,3.55199 3.57195,3.55199 z" style="fill:#784421;fill-opacity:1;fill-rule:evenodd;stroke:none;stroke-width:1px;stroke-linecap:butt;stroke-linejoin:miter;stroke-opacity:1"/>
    <path id="path4812-9-8" d="m 298.73421,886.05658 c 0.30219,158.47032 0.47654,153.97612 0.47654,153.97612 l -6.84069,0.059 -1.19042,-13.4806 -0.57766,13.2907 -2.60861,-0.035 -4.97268,0.3089 0.3022,-4.2974 -0.59306,4.3041 -3.50812,-0.023 0.475,-154.95041 c 3.27199,0.4028 6.09655,-0.92858 10.48711,0.025 l -0.0857,7.42672 -0.10197,-7.77084 2.92441,0.21449 0.67655,10.52907 -0.13895,-10.54934 2.56722,0.30464 z" style="fill:url(#linearGradient7164-5);fill-opacity:1;fill-rule:evenodd;stroke:none;stroke-width:1px;stroke-linecap:butt;stroke-linejoin:miter;stroke-opacity:1"/>
    <path id="path4812-3-2" d="m 97.488939,890.45041 c 0.151099,76.18667 -3.079524,114.12859 -0.466616,133.07109 l 2.237229,16.219 c -1.406625,-5.1309 1.315848,0.4273 -1.125402,-0.048 l -8.545645,0.2558 -0.68734,-14.7562 -0.02671,14.4594 -3.2973,0.3918 -2.77736,-0.3569 -1.911433,0.01 0.156052,-5.5911 -1.208734,5.3464 0.757967,1.0118 -4.171439,-2.075 1.132231,-149.87029 2.774218,-1.5788 c 3.044255,0.6181 0,0 5.77706,-0.88847 l 0.302029,0.54768 c 1.360893,22.75795 1.259558,22.59453 1.526572,-0.0944 l 1.386761,0.24026 -0.360958,-0.14339 c 4.284674,11.85628 4.306157,11.56292 -0.508069,0.0109 l 5.464915,0.3465 c 0.766432,0.004 3.571954,3.49406 3.571954,3.49406 z" style="fill:#784421;fill-opacity:1;fill-rule:evenodd;stroke:none;stroke-width:1px;stroke-linecap:butt;stroke-linejoin:miter;stroke-opacity:1"/>
    <path id="path4812-9-8-0" d="m 99.415825,887.48204 c 0.302182,155.88576 0.08172,152.59016 0.08172,152.59016 l -6.721356,-0.2977 -0.2438,-3.06 -1.111064,2.8733 -3.159566,0.3848 -4.559463,0.1662 -0.592651,-10.132 -0.111435,9.7347 -3.094893,0.6695 0.475003,-153.76342 c 9.823731,-0.11413 7.908357,-3.90033 7.493131,9.01807 l 0.969919,-9.21889 4.760801,0.0979 -0.218306,2.76202 -0.810096,-2.78196 4.133219,0.29968 z" style="fill:url(#linearGradient7164-5-7);fill-opacity:1;fill-rule:evenodd;stroke:none;stroke-width:1px;stroke-linecap:butt;stroke-linejoin:miter;stroke-opacity:1"/>
    <path id="path4812" d="m 32.423764,899.66695 c 156.608786,-0.30528 234.239306,1.62696 273.540036,0.94281 l 38.71932,-2.01557 -2.92955,14.79765 -2.02243,2.23796 -30.33293,1.38878 31.13858,0.61056 -0.61056,6.1056 1.53136,7.2815 -2.24949,2.19221 -11.49308,-0.3153 10.99009,2.44224 2.07971,4.34471 -4.26524,2.55223 -308.072348,-2.28768 0.224161,-1.08518 3.811703,-18.45276 1.99316,-1.96629 32.081914,1.0204 -33.299335,-1.61714 0.14303,-5.30755 1.564813,-1.93561 8.617639,-0.48013 -10.381356,-1.23467 -1.889893,-6.52173 c 0.008,-1.54857 1.110696,-2.697 1.110696,-2.697 z" style="fill:#784421;fill-opacity:1;fill-rule:evenodd;stroke:none;stroke-width:1px;stroke-linecap:butt;stroke-linejoin:miter;stroke-opacity:1"/>
    <a id="a4384">
      <path style="fill:url(#linearGradient7164);fill-opacity:1;fill-rule:evenodd;stroke:none;stroke-width:1px;stroke-linecap:butt;stroke-linejoin:miter;stroke-opacity:1" d="M 32.677313,899.75455 C 345.89488,899.14399 344.58623,898.5134 344.58623,898.5134 l -2.58988,14.37823 -31.51398,2.12694 31.13858,0.61056 -0.61056,6.1056 0.61056,9.76902 -12.82177,-0.6106 12.02351,2.58983 -0.31529,6.25323 -309.506735,-1.51636 3.440831,-19.83318 11.287588,-1.18288 -11.119923,-0.24597 0,-6.36081 16.995529,-0.46293 -17.035596,-1.97931 -1.093523,-3.83104 z" id="path4812-9"/>
    </a>
    <g transform="matrix(0.9824744,0,0,1.4327869,19.342298,-395.38606)" id="text6397" style="font-style:normal;font-variant:normal;font-weight:bold;font-stretch:normal;font-size:15px;line-height:125%;font-family:sans-serif;-inkscape-font-specification:'sans-serif Bold';letter-spacing:0px;word-spacing:0px;opacity:0.9;fill:#ffdd55;fill-opacity:1;stroke:none;stroke-width:1px;stroke-linecap:butt;stroke-linejoin:miter;stroke-opacity:1">
      <path id="path6421" d="m 42.386898,921.349 q -0.776367,0.40283 -1.618652,0.60791 -0.842285,0.20508 -1.757813,0.20508 -2.731933,0 -4.328613,-1.52344 -1.59668,-1.53076 -1.59668,-4.14551 0,-2.62207 1.59668,-4.14551 1.59668,-1.53076 4.328613,-1.53076 0.915528,0 1.757813,0.20508 0.842285,0.20508 1.618652,0.60791 l 0,2.26318 q -0.783691,-0.53466 -1.54541,-0.78369 -0.761719,-0.24902 -1.604004,-0.24902 -1.508789,0 -2.373047,0.9668 -0.864258,0.96679 -0.864258,2.66601 0,1.6919 0.864258,2.65869 0.864258,0.9668 2.373047,0.9668 0.842285,0 1.604004,-0.24902 0.761719,-0.24903 1.54541,-0.78369 l 0,2.26318 z"/>
      <path id="path6423" d="m 44.613461,913.74646 2.62207,0 0,2.77588 2.922363,-2.77588 2.871094,0 -3.500977,3.33252 3.786621,4.8706 -2.709961,0 -2.629394,-3.39111 -0.739746,0.70313 0,2.68798 -2.62207,0 0,-8.20312 z"/>
      <path id="path6425" d="m 62.799496,913.74646 0,8.20312 -2.622071,0 0,-4.36523 -2.644043,4.36523 -2.724609,0 0,-8.20312 2.62207,0 0,4.36523 2.644043,-4.36523 2.72461,0 z"/>
      <path id="path6427" d="m 65.348324,920.07458 q 0.834961,-0.27832 1.186523,-1.20117 0.351563,-0.93017 0.351563,-3.57422 l 0,-1.55273 7.089844,0 0,6.32812 1.362304,0 0,3.94776 -1.875,0 0,-2.07276 -6.679687,0 0,2.07276 -1.875,0 0,-3.94776 0.439453,0 z m 6.005859,-4.45312 -1.845703,0 0,0.22705 q 0,2.68799 -0.60791,4.22607 l 2.453613,0 0,-4.45312 z"/>
      <path id="path6429" d="m 77.455257,913.74646 2.622071,0 0,2.77588 2.922363,-2.77588 2.871094,0 -3.500977,3.33252 3.786621,4.8706 -2.709961,0 -2.629394,-3.39111 -0.739746,0.70313 0,2.68798 -2.622071,0 0,-8.20312 z"/>
      <path id="path6431" d="m 95.641293,913.74646 0,8.20312 -2.622071,0 0,-4.36523 -2.644043,4.36523 -2.724609,0 0,-8.20312 2.62207,0 0,4.36523 2.644043,-4.36523 2.72461,0 z"/>
      <path id="path6433" d="m 111.37371,913.74646 0,8.20312 -2.62207,0 0,-4.36523 -2.64404,4.36523 -2.72461,0 0,-8.20312 2.62207,0 0,4.36523 2.64405,-4.36523 2.7246,0 z"/>
      <path id="path6435" d="m 119.11541,921.94958 0,-8.20312 6.21827,0 0,1.61865 -3.5962,0 0,6.58447 -2.62207,0 z"/>
      <path id="path6437" d="m 130.87078,915.42371 q -0.87158,0 -1.333,0.62988 -0.4541,0.62256 -0.4541,1.80176 0,1.1792 0.4541,1.80908 0.46142,0.62256 1.333,0.62256 0.85694,0 1.31104,-0.62256 0.4541,-0.62988 0.4541,-1.80908 0,-1.1792 -0.4541,-1.80176 -0.4541,-0.62988 -1.31104,-0.62988 z m 0,-1.875 q 2.1167,0 3.30323,1.14257 1.19385,1.14258 1.19385,3.16407 0,2.02148 -1.19385,3.16406 -1.18653,1.14258 -3.30323,1.14258 -2.12402,0 -3.32519,-1.14258 -1.19385,-1.14258 -1.19385,-3.16406 0,-2.02149 1.19385,-3.16407 1.20117,-1.14257 3.32519,-1.14257 z"/>
      <path id="path6439" d="m 139.90155,920.76306 0,4.30664 -2.62207,0 0,-11.32324 2.62207,0 0,1.20117 q 0.54199,-0.71777 1.20117,-1.05469 0.65918,-0.34423 1.51611,-0.34423 1.51611,0 2.49024,1.20849 0.97412,1.20117 0.97412,3.09815 0,1.89697 -0.97412,3.10547 -0.97413,1.20117 -2.49024,1.20117 -0.85693,0 -1.51611,-0.33692 -0.65918,-0.34424 -1.20117,-1.06201 z m 1.74316,-5.31006 q -0.84228,0 -1.29639,0.62256 -0.44677,0.61524 -0.44677,1.77979 0,1.16455 0.44677,1.78711 0.45411,0.61523 1.29639,0.61523 0.84229,0 1.28174,-0.61523 0.44678,-0.61524 0.44678,-1.78711 0,-1.17188 -0.44678,-1.78711 -0.43945,-0.61524 -1.28174,-0.61524 z"/>
      <path id="path6441" d="m 150.35321,916.33923 q 0,0.52735 0.28564,0.76172 0.29297,0.23438 0.95947,0.23438 l 0.94483,0 0,-1.98487 -0.94483,0 q -0.6665,0 -0.95947,0.22705 -0.28564,0.22706 -0.28564,0.76172 z m -3.12012,5.61035 2.146,-3.5083 q -0.62256,-0.35888 -1.08399,-0.98144 -0.46142,-0.62988 -0.46142,-1.40625 0,-1.16455 0.78369,-1.73584 0.79101,-0.57129 2.55615,-0.57129 l 3.9917,0 0,8.20312 -2.62207,0 0,-2.9956 -0.92285,0 -1.83106,2.9956 -2.55615,0 z"/>
      <path id="path6443" d="m 162.3869,921.94958 0,-3.17138 -2.69531,0 q -1.09864,0 -1.70655,-0.64453 -0.60791,-0.65186 -0.60791,-1.92627 l 0,-2.46094 2.62207,0 0,1.45752 q 0,1.30371 0.21241,1.6333 0.2124,0.32227 0.76904,0.32227 l 1.40625,0 0,-3.41309 2.62207,0 0,8.20312 -2.62207,0 z"/>
      <path id="path6445" d="m 175.97332,913.74646 0,8.20312 -2.62207,0 0,-4.36523 -2.64404,4.36523 -2.72461,0 0,-8.20312 2.62207,0 0,4.36523 2.64404,-4.36523 2.72461,0 z"/>
      <path id="path6447" d="m 186.68866,917.82605 0,0.74707 -6.13038,0 q 0.0952,0.92285 0.66651,1.38428 0.57129,0.46142 1.59668,0.46142 0.82764,0 1.69189,-0.2417 0.87158,-0.24902 1.78711,-0.74707 l 0,2.02149 q -0.93017,0.35156 -1.86035,0.52734 -0.93018,0.18311 -1.86035,0.18311 -2.22656,0 -3.46436,-1.12793 -1.23047,-1.13526 -1.23047,-3.17871 0,-2.00684 1.2085,-3.15674 1.21582,-1.1499 3.33984,-1.1499 1.9336,0 3.09083,1.16455 1.16455,1.16455 1.16455,3.11279 z m -2.69532,-0.87158 q 0,-0.74707 -0.43945,-1.20117 -0.43213,-0.46143 -1.13525,-0.46143 -0.76172,0 -1.2378,0.43213 -0.47607,0.4248 -0.59326,1.23047 l 3.40576,0 z"/>
      <path id="path6449" d="m 201.72528,913.74646 0,8.20312 -2.62207,0 0,-6.32812 -2.6001,0 0,6.32812 -2.62207,0 0,-8.20312 7.84424,0 z"/>
      <path id="path6451" d="m 206.8742,920.76306 0,4.30664 -2.62207,0 0,-11.32324 2.62207,0 0,1.20117 q 0.54199,-0.71777 1.20117,-1.05469 0.65918,-0.34423 1.51612,-0.34423 1.51611,0 2.49023,1.20849 0.97412,1.20117 0.97412,3.09815 0,1.89697 -0.97412,3.10547 -0.97412,1.20117 -2.49023,1.20117 -0.85694,0 -1.51612,-0.33692 -0.65918,-0.34424 -1.20117,-1.06201 z m 1.74317,-5.31006 q -0.84229,0 -1.29639,0.62256 -0.44678,0.61524 -0.44678,1.77979 0,1.16455 0.44678,1.78711 0.4541,0.61523 1.29639,0.61523 0.84228,0 1.28174,-0.61523 0.44677,-0.61524 0.44677,-1.78711 0,-1.17188 -0.44677,-1.78711 -0.43946,-0.61524 -1.28174,-0.61524 z"/>
      <path id="path6453" d="m 223.19256,917.82605 0,0.74707 -6.13037,0 q 0.0952,0.92285 0.6665,1.38428 0.57129,0.46142 1.59668,0.46142 0.82764,0 1.6919,-0.2417 0.87158,-0.24902 1.78711,-0.74707 l 0,2.02149 q -0.93018,0.35156 -1.86035,0.52734 -0.93018,0.18311 -1.86035,0.18311 -2.22657,0 -3.46436,-1.12793 -1.23047,-1.13526 -1.23047,-3.17871 0,-2.00684 1.2085,-3.15674 1.21582,-1.1499 3.33984,-1.1499 1.93359,0 3.09082,1.16455 1.16455,1.16455 1.16455,3.11279 z m -2.69531,-0.87158 q 0,-0.74707 -0.43945,-1.20117 -0.43213,-0.46143 -1.13526,-0.46143 -0.76172,0 -1.23779,0.43213 -0.47607,0.4248 -0.59326,1.23047 l 3.40576,0 z"/>
      <path id="path6455" d="m 225.19207,920.07458 q 0.83496,-0.27832 1.18653,-1.20117 0.35156,-0.93017 0.35156,-3.57422 l 0,-1.55273 7.08984,0 0,6.32812 1.36231,0 0,3.94776 -1.875,0 0,-2.07276 -6.67969,0 0,2.07276 -1.875,0 0,-3.94776 0.43945,0 z m 6.00586,-4.45312 -1.8457,0 0,0.22705 q 0,2.68799 -0.60791,4.22607 l 2.45361,0 0,-4.45312 z"/>
      <path id="path6457" d="m 236.86688,921.94958 0,-1.875 q 1.29639,-0.26367 1.58935,-1.1206 0.21973,-0.65186 0.21973,-3.86719 l 0,-1.34033 7.08984,0 0,8.20312 -2.62207,0 0,-6.32812 -1.8457,0 0,0.271 q 0,3.21533 -0.50537,4.15283 -1.02539,1.90429 -3.92578,1.90429 z"/>
      <path id="path6459" d="m 252.18914,915.42371 q -0.87158,0 -1.333,0.62988 -0.45411,0.62256 -0.45411,1.80176 0,1.1792 0.45411,1.80908 0.46142,0.62256 1.333,0.62256 0.85694,0 1.31104,-0.62256 0.4541,-0.62988 0.4541,-1.80908 0,-1.1792 -0.4541,-1.80176 -0.4541,-0.62988 -1.31104,-0.62988 z m 0,-1.875 q 2.1167,0 3.30323,1.14257 1.19384,1.14258 1.19384,3.16407 0,2.02148 -1.19384,3.16406 -1.18653,1.14258 -3.30323,1.14258 -2.12402,0 -3.32519,-1.14258 -1.19385,-1.14258 -1.19385,-3.16406 0,-2.02149 1.19385,-3.16407 1.20117,-1.14257 3.32519,-1.14257 z"/>
      <path id="path6461" d="m 257.5578,921.94958 3.71338,-4.8706 -3.42774,-3.33252 2.87109,0 2.77588,2.70264 0,-2.70264 2.62207,0 0,2.70264 2.77588,-2.70264 2.8711,0 -3.42774,3.33252 3.71338,4.8706 -2.70996,0 -2.56348,-3.35449 -0.65918,0.63721 0,2.71728 -2.62207,0 0,-2.71728 -0.65918,-0.63721 -2.56347,3.35449 -2.70996,0 z"/>
      <path id="path6463" d="m 281.72772,917.82605 0,0.74707 -6.13037,0 q 0.0952,0.92285 0.6665,1.38428 0.57129,0.46142 1.59668,0.46142 0.82764,0 1.6919,-0.2417 0.87158,-0.24902 1.7871,-0.74707 l 0,2.02149 q -0.93017,0.35156 -1.86035,0.52734 -0.93017,0.18311 -1.86035,0.18311 -2.22656,0 -3.46435,-1.12793 -1.23047,-1.13526 -1.23047,-3.17871 0,-2.00684 1.20849,-3.15674 1.21582,-1.1499 3.33985,-1.1499 1.93359,0 3.09082,1.16455 1.16455,1.16455 1.16455,3.11279 z m -2.69531,-0.87158 q 0,-0.74707 -0.43946,-1.20117 -0.43213,-0.46143 -1.13525,-0.46143 -0.76172,0 -1.23779,0.43213 -0.47608,0.4248 -0.59327,1.23047 l 3.40577,0 z"/>
      <path id="path6465" d="m 283.70526,913.74646 2.62207,0 0,3.12012 2.6001,0 0,-3.12012 2.62207,0 0,8.20312 -2.62207,0 0,-3.46435 -2.6001,0 0,3.46435 -2.62207,0 0,-8.20312 z"/>
      <path id="path6467" d="m 302.06707,913.74646 0,8.20312 -2.62207,0 0,-4.36523 -2.64404,4.36523 -2.72461,0 0,-8.20312 2.62207,0 0,4.36523 2.64404,-4.36523 2.72461,0 z"/>
      <path id="path6469" d="m 306.91571,916.33923 q 0,0.52735 0.28564,0.76172 0.29297,0.23438 0.95947,0.23438 l 0.94483,0 0,-1.98487 -0.94483,0 q -0.6665,0 -0.95947,0.22705 -0.28564,0.22706 -0.28564,0.76172 z m -3.12012,5.61035 2.146,-3.5083 q -0.62256,-0.35888 -1.08399,-0.98144 -0.46142,-0.62988 -0.46142,-1.40625 0,-1.16455 0.78369,-1.73584 0.79101,-0.57129 2.55615,-0.57129 l 3.9917,0 0,8.20312 -2.62207,0 0,-2.9956 -0.92285,0 -1.83106,2.9956 -2.55615,0 z"/>
    </g>
    <path id="path4812-0" d="m 32.016561,990.88445 c 156.608789,-0.30528 234.235209,1.32441 273.540039,0.94281 39.30484,-0.3816 39.45748,-0.68688 39.45748,-0.68688 l -0.12455,13.02612 -1.91338,2.9118 -33.98514,1.1578 31.13858,0.6106 -0.61056,6.1056 2.86005,7.7244 -2.24949,2.0446 -12.82177,-0.6106 10.99009,2.4422 2.37498,3.9019 -2.34603,2.8474 -312.025751,-2.1601 3.440111,-16.8805 1.609126,-0.8665 3.959859,-0.086 6.31246,-0.474 -11.576037,0.065 -0.638754,-8.5106 2.54602,-1.5551 20.524024,0.2756 -22.378114,-0.4518 -0.522625,-9.5191 2.439382,-2.25411 z" style="fill:#784421;fill-opacity:1;fill-rule:evenodd;stroke:none;stroke-width:1px;stroke-linecap:butt;stroke-linejoin:miter;stroke-opacity:1"/>
    <path id="path4812-1" d="m 339.6395,945.31785 c -156.60878,-0.30528 -234.2352,1.32441 -273.540034,0.94281 -39.30484,-0.3816 -37.981162,-2.60609 -37.981162,-2.60609 l -1.799993,2.32462 2.367439,13.06355 0.398476,1.79506 33.58083,1.83168 -32.319634,-1.16102 -1.899181,1.38136 0.830749,14.2202 9.778708,0.12539 5.292548,1.30861 -12.61404,-0.0674 -2.227345,1.68729 -1.022856,6.87677 8.683631,0.25208 304.053624,-1.4219 3.60517,-1.81569 -6.89765,-17.72229 -2.32109,-1.83869 -30.1026,0.61757 33.01162,-0.27506 2.50219,-1.48971 -4.71961,-7.66966 0.29941,0.97979 3.14739,-1.97283 0.26595,-4.60251 c -0.008,-1.54857 -0.37254,-4.76385 -0.37254,-4.76385 z" style="fill:#784421;fill-opacity:1;fill-rule:evenodd;stroke:none;stroke-width:1px;stroke-linecap:butt;stroke-linejoin:miter;stroke-opacity:1"/>
    <a onmouseout="" onmouseover="" transform="translate(0,2)" target="_parent" xlink:href="http://lagonaki-tur.ru/price#dni" id="a7830">
      <path style="fill:url(#linearGradient7184);fill-opacity:1;fill-rule:evenodd;stroke:none;stroke-width:1px;stroke-linecap:butt;stroke-linejoin:miter;stroke-opacity:1" d="M 342.13826,943.13022 C 28.920696,942.51966 28.310136,941.29854 28.310136,941.29854 l 2.44224,14.98879 33.58083,2.10691 -33.89089,1.16102 -0.215133,5.55514 0.765595,8.39284 15.023618,0.76555 -14.292862,2.4422 -1.040825,5.83037 314.508351,-0.94587 -3.93119,-19.53789 -12.17338,-1.47814 12.30098,0.49219 -1.91921,-6.95134 -16.25738,-0.61056 16.74034,-1.09352 1.38878,-4.71683 z" id="path4812-9-4"/>
    </a>
    <path id="path6942-94" d="m 35.942266,959.08577 19.15916,1.59031 -20.81862,0.28915 2.26289,-2.31318 z" style="fill:#784421;fill-opacity:1;fill-rule:evenodd;stroke:none;stroke-width:1px;stroke-linecap:butt;stroke-linejoin:miter;stroke-opacity:1"/>
    <g id="g4667" style="font: bold 27.698px/125% sans-serif; letter-spacing: 0px; word-spacing: 0px; fill: rgb(255, 221, 85); fill-opacity: 0.9; stroke: none; stroke-width: 1px; stroke-linecap: butt; stroke-linejoin: miter; stroke-opacity: 1;">
       
      <path inkscape:connector-curvature="0" id="path4383" d="m 53.210428,969.04597 q -0.836819,0.60425 -1.743374,0.91187 -0.897837,0.30762 -1.874126,0.30762 -2.928868,0 -4.637375,-2.28517 -1.708505,-2.29614 -1.708505,-6.21826 0,-3.9331 1.708505,-6.21825 1.708507,-2.29615 4.637375,-2.29615 0.976289,0 1.874126,0.30762 0.906555,0.30761 1.743374,0.91187 l 0,3.39477 q -0.845536,-0.802 -1.664921,-1.17554 -0.810669,-0.37353 -1.708507,-0.37353 -1.621338,0 -2.545326,1.45019 -0.923988,1.4502 -0.923988,3.99902 0,2.53784 0.923988,3.98804 0.923988,1.45019 2.545326,1.45019 0.897838,0 1.708507,-0.37353 0.819385,-0.37354 1.664921,-1.17554 l 0,3.39478 z"/>
      <path inkscape:connector-curvature="0" id="path4385" d="m 55.581417,957.64216 2.806832,0 0,4.16382 3.129355,-4.16382 3.077055,0 -3.748253,4.99878 4.053344,7.30591 -2.902718,0 -2.815548,-5.08667 -0.793235,1.05469 0,4.03198 -2.806832,0 0,-12.30469 z"/>
      <path inkscape:connector-curvature="0" id="path4387" d="m 75.054902,957.64216 0,12.30469 -2.815549,0 0,-6.54785 -2.824265,6.54785 -2.920152,0 0,-12.30469 2.806833,0 0,6.54785 2.832982,-6.54785 2.920151,0 z"/>
      <path inkscape:connector-curvature="0" id="path4389" d="m 77.783281,967.13435 q 0.88912,-0.41748 1.263945,-1.80176 0.374826,-1.39527 0.374826,-5.36132 l 0,-2.32911 7.601109,0 0,9.49219 1.455718,0 0,5.92163 -2.00488,0 0,-3.10913 -7.15655,0 0,3.10913 -2.004879,0 0,-5.92163 0.470711,0 z m 6.433049,-6.67969 -1.978729,0 0,0.34058 q 0,4.03198 -0.653765,6.33911 l 2.632494,0 0,-6.67969 z"/>
      <path inkscape:connector-curvature="0" id="path4391" d="m 90.72783,957.64216 2.806831,0 0,4.16382 3.12936,-4.16382 3.077048,0 -3.748252,4.99878 4.053353,7.30591 -2.902722,0 -2.815551,-5.08667 -0.793236,1.05469 0,4.03198 -2.806831,0 0,-12.30469 z"/>
      <path inkscape:connector-curvature="0" id="path4393" d="m 110.20132,957.64216 0,12.30469 -2.81555,0 0,-6.54785 -2.82427,6.54785 -2.92015,0 0,-12.30469 2.80684,0 0,6.54785 2.83297,-6.54785 2.92016,0 z"/>
      <path inkscape:connector-curvature="0" id="path4395" d="m 118.50849,967.13435 q 0.88913,-0.41748 1.26395,-1.80176 0.37482,-1.39527 0.37482,-5.36132 l 0,-2.32911 7.60111,0 0,9.49219 1.45572,0 0,5.92163 -2.00488,0 0,-3.10913 -7.15655,0 0,3.10913 -2.00488,0 0,-5.92163 0.47071,0 z m 6.43305,-6.67969 -1.97873,0 0,0.34058 q 0,4.03198 -0.65376,6.33911 l 2.63249,0 0,-6.67969 z"/>
      <path inkscape:connector-curvature="0" id="path4397" d="m 130.99105,969.94685 0,-2.8125 q 1.38598,-0.39551 1.69979,-1.6809 0.23535,-0.97779 0.23535,-5.80079 l 0,-2.0105 7.59239,0 0,12.30469 -2.80683,0 0,-9.49219 -1.97873,0 0,0.4065 q 0,4.82299 -0.54044,6.22924 -1.09832,2.85645 -4.20153,2.85645 z"/>
      <path inkscape:connector-curvature="0" id="path4399" d="m 145.72256,961.53132 q 0,0.79102 0.30509,1.14258 0.31381,0.35156 1.02858,0.35156 l 1.01116,0 0,-2.97729 -1.01116,0 q -0.71477,0 -1.02858,0.34058 -0.30509,0.34057 -0.30509,1.14257 z m -3.33857,8.41553 2.29254,-5.26246 q -0.66248,-0.53832 -1.15934,-1.47216 -0.49686,-0.94482 -0.49686,-2.10937 0,-1.74683 0.84554,-2.60376 0.84553,-0.85694 2.73709,-0.85694 l 4.27126,0 0,12.30469 -2.80683,0 0,-4.4934 -0.985,0 -1.9613,4.4934 -2.7371,0 z"/>
      <path inkscape:connector-curvature="0" id="path4401" d="m 167.54088,957.64216 0,12.30469 -2.81555,0 0,-9.49219 -2.78068,0 0,9.49219 -2.80683,0 0,-12.30469 8.40306,0 z"/>
      <path inkscape:connector-curvature="0" id="path4403" d="m 174.40106,960.15803 q -0.93271,0 -1.42086,0.94483 -0.48814,0.93383 -0.48814,2.70263 0,1.7688 0.48814,2.71362 0.48815,0.93384 1.42086,0.93384 0.92399,0 1.40341,-0.93384 0.48815,-0.94482 0.48815,-2.71362 0,-1.7688 -0.48815,-2.70263 -0.47942,-0.94483 -1.40341,-0.94483 z m 0,-2.81249 q 2.2751,0 3.54776,1.71386 1.27266,1.71387 1.27266,4.74609 0,3.03223 -1.27266,4.7461 -1.27266,1.71387 -3.54776,1.71387 -2.26639,0 -3.55649,-1.71387 -1.28138,-1.71387 -1.28138,-4.7461 0,-3.03222 1.28138,-4.74609 1.2901,-1.71386 3.55649,-1.71386 z"/>
      <path inkscape:connector-curvature="0" id="path4405" d="m 188.3742,958.02668 0,3.20801 q -0.56659,-0.54931 -1.15063,-0.81299 -0.57531,-0.26367 -1.1942,-0.26367 -1.17679,0 -1.83055,0.9668 -0.65376,0.9558 -0.65376,2.68066 0,1.72486 0.65376,2.69165 0.65376,0.95581 1.83055,0.95581 0.66247,0 1.25522,-0.27466 0.59274,-0.27466 1.08961,-0.81298 l 0,3.21899 q -0.65376,0.34058 -1.33368,0.50537 -0.67991,0.17579 -1.35984,0.17579 -2.3797,0 -3.7221,-1.70289 -1.34239,-1.71387 -1.34239,-4.75708 0,-3.04321 1.34239,-4.74609 1.3424,-1.71386 3.7221,-1.71386 0.68864,0 1.35984,0.17577 0.6712,0.16479 1.33368,0.50537 z"/>
      <path inkscape:connector-curvature="0" id="path4407" d="m 189.50739,957.64216 9.17887,0 0,2.42798 -3.18166,0 0,9.87671 -2.79812,0 0,-9.87671 -3.19909,0 0,-2.42798 z"/>
      <path inkscape:connector-curvature="0" id="path4409" d="m 204.28248,960.15803 q -0.9327,0 -1.42085,0.94483 -0.48814,0.93383 -0.48814,2.70263 0,1.7688 0.48814,2.71362 0.48815,0.93384 1.42085,0.93384 0.92398,0 1.40342,-0.93384 0.48814,-0.94482 0.48814,-2.71362 0,-1.7688 -0.48814,-2.70263 -0.47944,-0.94483 -1.40342,-0.94483 z m 0,-2.81249 q 2.2751,0 3.54777,1.71386 1.27266,1.71387 1.27266,4.74609 0,3.03223 -1.27266,4.7461 -1.27267,1.71387 -3.54777,1.71387 -2.26638,0 -3.55648,-1.71387 -1.28138,-1.71387 -1.28138,-4.7461 0,-3.03222 1.28138,-4.74609 1.2901,-1.71386 3.55648,-1.71386 z"/>
      <path inkscape:connector-curvature="0" id="path4411" d="m 213.64441,961.53132 q 0,0.79102 0.30508,1.14258 0.31381,0.35156 1.02859,0.35156 l 1.01116,0 0,-2.97729 -1.01116,0 q -0.71478,0 -1.02859,0.34058 -0.30508,0.34057 -0.30508,1.14257 z m -3.33857,8.41553 2.29254,-5.26246 q -0.66248,-0.53832 -1.15935,-1.47216 -0.49685,-0.94482 -0.49685,-2.10937 0,-1.74683 0.84553,-2.60376 0.84554,-0.85694 2.7371,-0.85694 l 4.27126,0 0,12.30469 -2.80683,0 0,-4.4934 -0.985,0 -1.9613,4.4934 -2.7371,0 z"/>
      <path inkscape:connector-curvature="0" id="path4413" d="m 221.48086,957.64216 2.80684,0 0,4.68018 2.78068,0 0,-4.68018 2.81555,0 0,12.30469 -2.81555,0 0,-5.19653 -2.78068,0 0,5.19653 -2.80684,0 0,-12.30469 z"/>
      <path inkscape:connector-curvature="0" id="path4415" d="m 232.56872,957.64216 2.80684,0 0,4.68018 2.78068,0 0,-4.68018 2.81555,0 0,12.30469 -2.81555,0 0,-5.19653 -2.78068,0 0,5.19653 -2.80684,0 0,-12.30469 z"/>
      <path inkscape:connector-curvature="0" id="path4417" d="m 252.72212,957.64216 2.80684,0 0,12.30469 -2.80684,0 0,-12.30469 z m -3.59135,8.45947 q 0,-0.69214 -0.31381,-1.03272 -0.30509,-0.32958 -0.9327,-0.32958 l -1.42084,0 0,2.74658 1.42084,0 q 0.6189,0 0.9327,-0.35156 0.31381,-0.34058 0.31381,-1.03272 z m -5.47419,-8.45947 2.80684,0 0,4.66919 1.59518,0 q 1.77824,0 2.73709,0.91186 0.95887,0.92286 0.95887,2.92237 0,1.99951 -0.95887,2.90039 -0.95885,0.90088 -2.73709,0.90088 l -4.40202,0 0,-12.30469 z"/>
      <path inkscape:connector-curvature="0" id="path4421" d="m 275.03731,969.94685 0,-12.30469 6.65969,0 0,2.42798 -3.85286,0 0,9.87671 -2.80683,0 z"/>
      <path inkscape:connector-curvature="0" id="path4423" d="m 287.61573,960.15803 q -0.9327,0 -1.42085,0.94483 -0.48814,0.93383 -0.48814,2.70263 0,1.7688 0.48814,2.71362 0.48815,0.93384 1.42085,0.93384 0.92399,0 1.40342,-0.93384 0.48814,-0.94482 0.48814,-2.71362 0,-1.7688 -0.48814,-2.70263 -0.47943,-0.94483 -1.40342,-0.94483 z m 0,-2.81249 q 2.27511,0 3.54777,1.71386 1.27266,1.71387 1.27266,4.74609 0,3.03223 -1.27266,4.7461 -1.27266,1.71387 -3.54777,1.71387 -2.26638,0 -3.55648,-1.71387 -1.28138,-1.71387 -1.28138,-4.7461 0,-3.03222 1.28138,-4.74609 1.2901,-1.71386 3.55648,-1.71386 z"/>
      <path inkscape:connector-curvature="0" id="path4425" d="m 301.58888,958.02668 0,3.20801 q -0.5666,-0.54931 -1.15063,-0.81299 -0.57531,-0.26367 -1.19421,-0.26367 -1.17677,0 -1.83054,0.9668 -0.65377,0.9558 -0.65377,2.68066 0,1.72486 0.65377,2.69165 0.65377,0.95581 1.83054,0.95581 0.66248,0 1.25523,-0.27466 0.59275,-0.27466 1.08961,-0.81298 l 0,3.21899 q -0.65377,0.34058 -1.33368,0.50537 -0.67992,0.17579 -1.35983,0.17579 -2.3797,0 -3.7221,-1.70289 -1.3424,-1.71387 -1.3424,-4.75708 0,-3.04321 1.3424,-4.74609 1.3424,-1.71386 3.7221,-1.71386 0.68863,0 1.35983,0.17577 0.6712,0.16479 1.33368,0.50537 z"/>
      <path inkscape:connector-curvature="0" id="path4427" d="m 302.72207,957.64216 9.17886,0 0,2.42798 -3.18166,0 0,9.87671 -2.79811,0 0,-9.87671 -3.19909,0 0,-2.42798 z"/>
      <path inkscape:connector-curvature="0" id="path4429" d="m 322.09095,963.76155 0,1.1206 -6.5638,0 q 0.0959,1.38428 0.70607,2.07642 0.6189,0.69213 1.71722,0.69213 0.88912,0 1.81311,-0.36255 0.93271,-0.37353 1.90899,-1.1206 l 0,3.03223 q -0.99372,0.52734 -1.99616,0.79102 -0.99373,0.27466 -1.98744,0.27466 -2.38843,0 -3.71339,-1.6919 -1.31625,-1.70289 -1.31625,-4.76807 0,-3.01025 1.29881,-4.73511 1.29881,-1.72484 3.57392,-1.72484 2.07461,0 3.31241,1.74681 1.24651,1.74683 1.24651,4.6692 z m -2.88529,-1.30738 q 0,-1.12061 -0.4707,-1.80176 -0.462,-0.69213 -1.22037,-0.69213 -0.81067,0 -1.32496,0.64819 -0.50558,0.63721 -0.63633,1.8457 l 3.65236,0 z"/>
      <path inkscape:connector-curvature="0" id="path4431" d="m 332.79529,957.64216 0,12.30469 -2.81555,0 0,-6.54785 -2.82426,6.54785 -2.92016,0 0,-12.30469 2.80683,0 0,6.54785 2.83299,-6.54785 2.92015,0 z m -6.9212,-4.8999 1.12448,0 q 0.0872,0.76904 0.47072,1.17553 0.39225,0.4065 1.04602,0.4065 0.65376,0 1.03731,-0.4065 0.39225,-0.40649 0.4707,-1.17553 l 1.12448,0 q -0.0436,1.58203 -0.73221,2.42798 -0.67992,0.83496 -1.90028,0.83496 -1.22908,0 -1.909,-0.83496 -0.67991,-0.84595 -0.73222,-2.42798 z"/>
      <g transform="scale(0.89741491,1.1143118)" id="text4634">
        <path d="m 289.73061,864.98539 -3.98316,-5.39303 3.73668,0 2.25777,3.27328 2.28736,-3.27328 3.73667,0 -3.98315,5.37331 4.18034,5.6691 -3.73667,0 -2.48455,-3.49019 -2.45496,3.49019 -3.73667,0 4.18034,-5.64938 z" id="path4639" inkscape:connector-curvature="0"/>
      </g>
    </g>
    <path id="path6942" d="m 338.03488,1004.5165 -19.15916,1.5903 20.81862,0.2891 -2.26289,-2.3132 z" style="fill:#784421;fill-opacity:1;fill-rule:evenodd;stroke:none;stroke-width:1px;stroke-linecap:butt;stroke-linejoin:miter;stroke-opacity:1"/>
    <path id="path6942-0" d="m 336.98047,913.36145 -19.15916,1.5903 20.81862,0.2891 -2.26289,-2.3132 z" style="fill:#784421;fill-opacity:1;fill-rule:evenodd;stroke:none;stroke-width:1px;stroke-linecap:butt;stroke-linejoin:miter;stroke-opacity:1"/>
    <path id="path6942-8" d="m 33.242557,959.38072 27.07562,1.5903 -29.42076,0.2891 3.1979,-2.3132 z" style="fill:#784421;fill-opacity:1;fill-rule:evenodd;stroke:none;stroke-width:1px;stroke-linecap:butt;stroke-linejoin:miter;stroke-opacity:1"/>
    <a target="_parent" xlink:href="/price" cursor="pointer" id="a7830-6" transform="matrix(1,0,0,-1,2.7960206,1973.1863)">
      <path style="fill:url(#linearGradient8248);fill-opacity:1;fill-rule:evenodd;stroke:none;stroke-width:1px;stroke-linecap:butt;stroke-linejoin:miter;stroke-opacity:1" d="M 338.14765,942.42599 C 24.930086,941.81543 26.666944,944.11544 26.666944,944.11544 l 3.381207,15.22353 8.097109,1.02874 -7.437831,1.13508 -0.480246,3.60761 -0.642856,5.3412 15.25836,-0.40816 -14.997087,1.39883 0.132884,11.09909 312.395676,-0.71113 -0.49553,-13.0189 -20.91412,-2.15443 20.32855,-0.91312 -0.60982,-8.428 -1.21498,-6.7166 -14.1447,-1.31478 11.34128,-1.32826 0.91929,-0.25674 z" id="path4812-9-4-2"/>
    </a>
    <a onmouseout="" onmouseover="" transform="translate(0,4)" style="opacity:0.9" target="_parent" xlink:href="/price" cursor="pointer" id="a7730">
      <g onmouseout="this.style.fill='#ffdd55';" onclick="" onmouseover="this.style.fill='#ffeeaa';" transform="scale(0.79145042,1.263503)" style="font-style:normal;font-variant:normal;font-weight:bold;font-stretch:normal;font-size:27.060812px;line-height:125%;font-family:sans-serif;-inkscape-font-specification:'sans-serif Bold';letter-spacing:0px;word-spacing:0px;fill:#ffdd55;fill-opacity:1;stroke:none;stroke-width:1px;stroke-linecap:butt;stroke-linejoin:miter;stroke-opacity:1" id="a4447"/>
    </a>
    <path id="path6942-4" d="m 32.866617,1001.4659 12.907719,1.4411 -6.421632,-0.5569 -7.635395,-0.6623 1.563358,-0.2598 z" style="fill:#784421;fill-opacity:1;fill-rule:evenodd;stroke:none;stroke-width:1px;stroke-linecap:butt;stroke-linejoin:miter;stroke-opacity:1"/>
    <a style="fill:none" onmouseout="" onmouseover="" transform="translate(-84.570095,-127.407)" target="_parent" xlink:href="http://lagonaki-tur.ru/price#dni" id="a7830-7">
      <path style="fill:none;fill-opacity:1;fill-rule:evenodd;stroke:none;stroke-width:1px;stroke-linecap:butt;stroke-linejoin:miter;stroke-opacity:1" d="M 342.13826,943.13022 C 28.920696,942.51966 28.310136,941.29854 28.310136,941.29854 l 2.44224,14.98879 33.58083,2.10691 -33.89089,1.16102 -0.215133,5.55514 0.765595,8.39284 15.023618,0.76555 -14.292862,2.4422 -1.040825,5.83037 314.508351,-0.94587 -3.93119,-19.53789 -12.17338,-1.47814 12.30098,0.49219 -1.91921,-6.95134 -16.25738,-0.61056 16.74034,-1.09352 1.38878,-4.71683 z" id="path4812-9-4-0"/>
    </a>
    <a transform="translate(-4,0)" target="_parent" xlink:href="/price" cursor="pointer" id="a219">
      <g transform="scale(0.91165748,1.0969032)" onmouseout="this.style.fill='#ffdd55';" onmouseover="this.style.fill='#ffeeaa';" style="font: bold 27.698px/125% sans-serif; letter-spacing: 0px; word-spacing: 0px; fill: rgb(255, 221, 85); fill-opacity: 0.9; stroke: none; stroke-width: 1px; stroke-linecap: butt; stroke-linejoin: miter; stroke-opacity: 1;" id="text4371">
        <path d="m 62.685727,923.45447 q 0,1.23074 -0.433038,2.09681 -0.410246,0.86608 -1.025614,1.3447 -0.615369,0.45582 -1.618192,0.72932 -1.002824,0.25071 -1.846107,0.31908 -0.820492,0.0684 -1.982855,0.0684 l -5.652276,0 0,-16.40984 5.629485,0 q 1.002823,0 1.800523,0.0912 0.820492,0.0684 1.686567,0.34187 0.866074,0.2735 1.43586,0.72932 0.569786,0.43304 0.934449,1.20795 0.387455,0.77491 0.387455,1.84611 0,2.68939 -2.68939,3.53267 3.373133,0.93445 3.373133,4.10246 z m -4.034085,-7.2021 q 0,-1.3219 -0.706534,-1.73214 -0.706535,-0.41025 -2.165187,-0.41025 l -2.301935,0 0,4.14804 2.301935,0 q 1.413069,0 2.142395,-0.36466 0.729326,-0.38746 0.729326,-1.64099 z m 0.592578,6.81464 q 0,-0.63816 -0.205123,-1.07119 -0.205123,-0.45583 -0.501412,-0.68375 -0.273497,-0.2507 -0.7977,-0.36466 -0.501412,-0.13675 -0.911658,-0.15954 -0.387454,-0.0228 -1.048406,-0.0228 l -2.301935,0 0,4.62666 2.301935,0 q 0.546995,0 0.7977,0 0.250706,0 0.706535,-0.0456 0.455829,-0.0456 0.660952,-0.11396 0.227914,-0.0912 0.524203,-0.2507 0.296288,-0.18234 0.433037,-0.41025 0.136749,-0.25071 0.227914,-0.61537 0.113958,-0.38745 0.113958,-0.88887 z" id="path4380"/>
        <path d="m 74.309604,923.68238 q 0,2.18798 -1.230737,3.39593 -1.230738,1.18515 -3.441507,1.18515 -2.507058,0 -3.828962,-1.66377 -1.299111,-1.68657 -1.299111,-4.262 0,-2.73497 1.344694,-4.37596 1.344695,-1.66377 4.011293,-1.66377 1.982855,0 3.190801,1.11678 1.207947,1.09399 1.253529,3.05405 l -3.145218,0 q -0.182331,-2.05123 -1.549818,-2.05123 -1.663774,0 -1.663774,3.64663 0,0.56979 0,0.88887 0.02279,0.31908 0.113957,0.98003 0.09117,0.63816 0.250706,1.02561 0.15954,0.36467 0.501411,0.68375 0.364663,0.29629 0.866075,0.29629 1.390277,0 1.504235,-2.25636 l 3.122426,0 z" id="path4382"/>
        <path d="m 84.74776,918.8506 -3.031261,0 0,9.16216 -3.304758,0 0,-9.16216 -3.00847,0 0,-2.27915 9.344489,0 0,2.27915 z" id="path4384"/>
        <path d="m 98.057914,922.29211 q 0,1.54981 -0.455829,2.82613 -0.433037,1.27632 -1.527026,2.18798 -1.071198,0.88887 -2.643807,0.88887 -2.256352,0 -3.441507,-1.75494 l 0,5.88019 -3.304758,0 0,-13.42416 q 0,-1.36748 -0.113958,-2.32473 l 3.259176,0 0.113957,1.64099 q 1.207946,-1.8689 3.441507,-1.8689 1.185155,0 2.096812,0.5242 0.934449,0.52421 1.481444,1.39028 0.546994,0.86608 0.820492,1.89169 0.273497,1.02562 0.273497,2.1424 z m -3.532673,1.64098 q 0.15954,-0.77491 0.15954,-1.66378 0,-0.88886 -0.15954,-1.64098 -0.15954,-0.77491 -0.729326,-1.43586 -0.546994,-0.66095 -1.43586,-0.66095 -0.683744,0 -1.185155,0.36466 -0.501412,0.36466 -0.774909,0.95724 -0.250706,0.56979 -0.364663,1.18516 -0.113957,0.59257 -0.113957,1.23073 0,0.63816 0.113957,1.25353 0.113957,0.59258 0.364663,1.18516 0.273497,0.56978 0.774909,0.93445 0.501411,0.36466 1.185155,0.36466 0.888866,0 1.43586,-0.66095 0.569786,-0.66095 0.729326,-1.41307 z" id="path4386"/>
        <path d="m 110.59325,922.24652 q 0,0.11396 -0.0228,0.36467 0,0.2507 0,0.38745 l -7.38442,0 q 0.0456,3.05405 2.1196,3.05405 1.64099,0 1.98286,-1.61819 l 2.94009,0 q -0.13675,1.91448 -1.50423,2.87172 -1.36749,0.93445 -3.39593,0.93445 -2.6438,0 -3.9885,-1.57261 -1.344693,-1.57261 -1.344693,-4.262 0,-2.78055 1.367483,-4.44433 1.39028,-1.66377 4.12525,-1.66377 2.59823,0 3.85176,1.64098 1.25353,1.61819 1.25353,4.30758 z m -3.39593,-1.36748 q -0.0456,-2.48427 -1.93727,-2.48427 -0.95724,0 -1.43586,0.72933 -0.47862,0.70653 -0.547,1.75494 l 3.92013,0 z" id="path4388"/>
        <path d="m 122.08006,928.01276 -3.23638,0 0,-3.71501 q -1.27632,0.0456 -1.93727,0.0456 -1.16237,0 -1.84611,-0.0912 -0.68374,-0.11396 -1.29911,-0.45583 -0.59258,-0.34187 -0.86608,-1.02561 -0.2507,-0.70654 -0.2507,-1.84611 l 0,-4.35317 3.30476,0 0,4.07967 q 0,1.02562 0.43303,1.3447 0.43304,0.31908 1.50424,0.31908 l 0.95724,0 0,-5.74345 3.23638,0 0,11.44131 z" id="path4390"/>
        <path d="m 134.88914,928.01276 -2.87172,0 q -0.11396,-0.7977 -0.13675,-1.54982 -1.39027,1.89169 -3.62384,1.89169 -1.61819,0 -2.6438,-0.98003 -1.00283,-1.00283 -1.00283,-2.62102 0,-0.91166 0.29629,-1.61819 0.31908,-0.70654 0.86608,-1.13957 0.56978,-0.43304 1.20794,-0.70654 0.63816,-0.29629 1.48145,-0.41024 0.86607,-0.13675 1.54982,-0.18233 0.70653,-0.0456 1.52702,-0.0228 0,-0.0912 0,-0.2507 0.0228,-0.15954 0.0228,-0.22792 0,-2.02843 -1.5954,-2.02843 -1.45865,0 -1.57261,1.61819 l -3.30476,0 q 0.0228,-1.91448 1.3447,-2.71218 1.34469,-0.7977 3.39592,-0.7977 3.55547,0 4.48992,2.09681 0.38745,0.84328 0.38745,2.6666 0,4.62666 0.18233,6.97418 z m -3.35034,-4.87737 q 0,-0.41025 -0.0228,-0.61537 l -0.36466,0 q -0.7977,0 -1.48145,0.13675 -0.66095,0.13675 -1.25353,0.61537 -0.56978,0.47862 -0.56978,1.27632 0,0.66095 0.45583,1.09399 0.45583,0.41024 1.13957,0.41024 1.13957,0 1.61819,-0.84328 0.47862,-0.84328 0.47862,-2.07402 z" id="path4392"/>
        <path d="m 146.80895,911.3978 q -0.11396,1.68657 -0.98003,2.52985 -0.84328,0.84328 -2.52985,0.84328 -3.25918,0 -3.50988,-3.37313 l 1.80052,0 q 0.0912,2.02844 1.73215,2.02844 1.5954,0 1.68657,-2.02844 l 1.80052,0 z m 1.91448,16.61496 -2.98568,0 0,-8.2505 -4.10246,8.2505 -3.89733,0 0,-11.44131 2.96289,0 0,7.95422 3.96571,-7.95422 4.05687,0 0,11.44131 z" id="path4394"/>
        <path d="m 160.05103,918.8506 -3.03126,0 0,9.16216 -3.30476,0 0,-9.16216 -3.00847,0 0,-2.27915 9.34449,0 0,2.27915 z" id="path4396"/>
        <path d="m 172.03929,922.24652 q 0,0.11396 -0.0228,0.36467 0,0.2507 0,0.38745 l -7.38443,0 q 0.0456,3.05405 2.11961,3.05405 1.64098,0 1.98285,-1.61819 l 2.9401,0 q -0.13675,1.91448 -1.50424,2.87172 -1.36748,0.93445 -3.39592,0.93445 -2.64381,0 -3.9885,-1.57261 -1.3447,-1.57261 -1.3447,-4.262 0,-2.78055 1.36749,-4.44433 1.39028,-1.66377 4.12525,-1.66377 2.59822,0 3.85175,1.64098 1.25353,1.61819 1.25353,4.30758 z m -3.39592,-1.36748 q -0.0456,-2.48427 -1.93728,-2.48427 -0.95724,0 -1.43586,0.72933 -0.47862,0.70653 -0.54699,1.75494 l 3.92013,0 z" id="path4398"/>
        <path d="m 192.68845,928.01276 -3.25918,0 0,-9.16216 -4.05687,0 0,9.16216 -3.28197,0 0,-11.44131 10.59802,0 0,11.44131 z" id="path4400"/>
        <path d="m 207.09278,922.29211 q 0,1.54981 -0.45583,2.82613 -0.43304,1.27632 -1.52703,2.18798 -1.0712,0.88887 -2.64381,0.88887 -2.25635,0 -3.4415,-1.75494 l 0,5.88019 -3.30476,0 0,-13.42416 q 0,-1.36748 -0.11396,-2.32473 l 3.25918,0 0.11395,1.64099 q 1.20795,-1.8689 3.44151,-1.8689 1.18516,0 2.09681,0.5242 0.93445,0.52421 1.48145,1.39028 0.54699,0.86608 0.82049,1.89169 0.2735,1.02562 0.2735,2.1424 z m -3.53268,1.64098 q 0.15954,-0.77491 0.15954,-1.66378 0,-0.88886 -0.15954,-1.64098 -0.15954,-0.77491 -0.72932,-1.43586 -0.547,-0.66095 -1.43586,-0.66095 -0.68375,0 -1.18516,0.36466 -0.50141,0.36466 -0.77491,0.95724 -0.2507,0.56979 -0.36466,1.18516 -0.11396,0.59257 -0.11396,1.23073 0,0.63816 0.11396,1.25353 0.11396,0.59258 0.36466,1.18516 0.2735,0.56978 0.77491,0.93445 0.50141,0.36466 1.18516,0.36466 0.88886,0 1.43586,-0.66095 0.56978,-0.66095 0.72932,-1.41307 z" id="path4402"/>
        <path d="m 219.33181,928.01276 -2.87172,0 q -0.11396,-0.7977 -0.13675,-1.54982 -1.39028,1.89169 -3.62384,1.89169 -1.61819,0 -2.64381,-0.98003 -1.00282,-1.00283 -1.00282,-2.62102 0,-0.91166 0.29629,-1.61819 0.31908,-0.70654 0.86607,-1.13957 0.56979,-0.43304 1.20795,-0.70654 0.63816,-0.29629 1.48144,-0.41024 0.86608,-0.13675 1.54982,-0.18233 0.70653,-0.0456 1.52703,-0.0228 0,-0.0912 0,-0.2507 0.0228,-0.15954 0.0228,-0.22792 0,-2.02843 -1.5954,-2.02843 -1.45865,0 -1.57261,1.61819 l -3.30476,0 q 0.0228,-1.91448 1.34469,-2.71218 1.3447,-0.7977 3.39593,-0.7977 3.55546,0 4.48991,2.09681 0.38746,0.84328 0.38746,2.6666 0,4.62666 0.18233,6.97418 z m -3.35034,-4.87737 q 0,-0.41025 -0.0228,-0.61537 l -0.36467,0 q -0.7977,0 -1.48144,0.13675 -0.66095,0.13675 -1.25353,0.61537 -0.56979,0.47862 -0.56979,1.27632 0,0.66095 0.45583,1.09399 0.45583,0.41024 1.13957,0.41024 1.13958,0 1.6182,-0.84328 0.47862,-0.84328 0.47862,-2.07402 z" id="path4404"/>
        <path d="m 230.7502,924.77637 q 0,1.00283 -0.47862,1.73215 -0.45582,0.70654 -1.25353,1.09399 -0.7749,0.36466 -1.61819,0.5242 -0.84328,0.18234 -1.77773,0.18234 -4.33037,0 -4.62666,-3.89734 l 2.9173,0 q 0.29629,1.70936 1.8689,1.70936 0.75212,0 1.20795,-0.41025 0.45583,-0.43304 0.45583,-1.16236 0,-0.47862 -0.2735,-0.77491 -0.2735,-0.31908 -0.82049,-0.43304 -0.52421,-0.11396 -0.84329,-0.13675 -0.31908,-0.0228 -0.88886,-0.0228 l 0,-2.02844 q 0.50141,0 0.70653,0 0.22792,0 0.72933,-0.0684 0.50141,-0.0912 0.72932,-0.22791 0.25071,-0.13675 0.45583,-0.41025 0.22792,-0.29629 0.22792,-0.72933 0,-0.59257 -0.45583,-0.93445 -0.43304,-0.36466 -1.04841,-0.36466 -1.52702,0 -1.77773,1.61819 l -2.96289,0 q 0.31908,-3.78338 4.809,-3.78338 1.07119,0 2.05123,0.2735 1.00282,0.2735 1.77773,1.02562 0.77491,0.75211 0.77491,1.8461 0,2.1424 -2.43869,2.6666 2.55264,0.547 2.55264,2.71218 z" id="path4406"/>
        <path d="m 244.74424,930.31469 -2.48427,0 -0.13675,-2.57543 -7.49838,0 -0.13675,2.57543 -2.48426,0 0,-4.85457 1.00282,0 q 1.54982,-3.50989 1.8689,-8.88867 l 8.72912,0 0,8.88867 1.13957,0 0,4.85457 z m -4.37596,-4.85457 0,-6.60952 -2.57543,0 q -0.38745,3.94292 -1.57261,6.60952 l 4.14804,0 z" id="path4408"/>
        <path d="m 257.439,928.01276 -3.25918,0 0,-4.809 -4.05687,0 0,4.809 -3.28197,0 0,-11.44131 3.28197,0 0,4.35317 4.05687,0 0,-4.35317 3.25918,0 0,11.44131 z" id="path4410"/>
        <path d="m 271.50145,928.01276 -2.98567,0 0,-8.2505 -4.10246,8.2505 -3.89734,0 0,-11.44131 2.96289,0 0,7.95422 3.96571,-7.95422 4.05687,0 0,11.44131 z" id="path4412"/>
        <path d="m 285.42727,928.01276 -3.62384,0 -2.02843,-3.94292 q -0.56979,-1.09399 -1.54982,-1.09399 -0.22792,0 -0.34187,0.0228 l 0,5.01412 -3.28197,0 0,-11.44131 3.28197,0 0,4.35317 0.13674,0 q 0.56979,0 1.02562,-0.45583 0.47862,-0.45583 0.84328,-1.09399 0.38746,-0.63816 0.82049,-1.27632 0.43304,-0.63816 1.13958,-1.09399 0.72932,-0.45583 1.66377,-0.45583 0.36466,0 1.13957,0.0912 l 0,2.52985 q -0.0912,-0.0228 -0.27349,-0.0228 -0.63816,0 -1.18516,0.59257 -0.5242,0.56979 -1.09399,1.27633 -0.56978,0.68374 -1.20794,0.86607 1.23073,0.41025 1.96006,1.68657 l 2.57543,4.44433 z" id="path4414"/>
        <path d="m 298.19069,928.01276 -2.98567,0 0,-8.2505 -4.10246,8.2505 -3.89734,0 0,-11.44131 2.96289,0 0,7.95422 3.96571,-7.95422 4.05687,0 0,11.44131 z" id="path4416"/>
        <path d="m 319.56948,916.57145 -2.9173,7.63514 q -2.1196,5.56111 -2.78056,8.11375 l -3.37313,0 1.41307,-4.30758 -4.33037,-11.44131 3.66942,0 2.48427,7.4756 2.50705,-7.4756 3.32755,0 z" id="path4418"/>
        <path d="m 339.60307,928.01276 -3.25917,0 0,-4.809 -4.05688,0 0,4.809 -3.28196,0 0,-11.44131 3.28196,0 0,4.35317 4.05688,0 0,-4.35317 3.25917,0 0,11.44131 z" id="path4420"/>
        <path d="m 352.3892,928.01276 -2.87172,0 q -0.11396,-0.7977 -0.13675,-1.54982 -1.39028,1.89169 -3.62384,1.89169 -1.61819,0 -2.64381,-0.98003 -1.00282,-1.00283 -1.00282,-2.62102 0,-0.91166 0.29629,-1.61819 0.31908,-0.70654 0.86607,-1.13957 0.56979,-0.43304 1.20795,-0.70654 0.63816,-0.29629 1.48144,-0.41024 0.86608,-0.13675 1.54982,-0.18233 0.70653,-0.0456 1.52702,-0.0228 0,-0.0912 0,-0.2507 0.0228,-0.15954 0.0228,-0.22792 0,-2.02843 -1.5954,-2.02843 -1.45866,0 -1.57261,1.61819 l -3.30476,0 q 0.0228,-1.91448 1.34469,-2.71218 1.3447,-0.7977 3.39593,-0.7977 3.55546,0 4.48991,2.09681 0.38745,0.84328 0.38745,2.6666 0,4.62666 0.18234,6.97418 z m -3.35035,-4.87737 q 0,-0.41025 -0.0228,-0.61537 l -0.36466,0 q -0.7977,0 -1.48144,0.13675 -0.66095,0.13675 -1.25353,0.61537 -0.56979,0.47862 -0.56979,1.27632 0,0.66095 0.45583,1.09399 0.45583,0.41024 1.13957,0.41024 1.13957,0 1.61819,-0.84328 0.47862,-0.84328 0.47862,-2.07402 z" id="path4422"/>
        <path d="m 364.37739,923.68238 q 0,2.18798 -1.23073,3.39593 -1.23074,1.18515 -3.44151,1.18515 -2.50706,0 -3.82896,-1.66377 -1.29911,-1.68657 -1.29911,-4.262 0,-2.73497 1.34469,-4.37596 1.3447,-1.66377 4.01129,-1.66377 1.98286,0 3.1908,1.11678 1.20795,1.09399 1.25353,3.05405 l -3.14521,0 q -0.18234,-2.05123 -1.54982,-2.05123 -1.66378,0 -1.66378,3.64663 0,0.56979 0,0.88887 0.0228,0.31908 0.11396,0.98003 0.0912,0.63816 0.25071,1.02561 0.15954,0.36467 0.50141,0.68375 0.36466,0.29629 0.86607,0.29629 1.39028,0 1.50424,-2.25636 l 3.12242,0 z" id="path4424"/>
        <path d="m 368.89887,925.12964 q -0.2507,0.35099 -0.72705,0.35099 -0.47634,0 -0.75211,-0.35099 -0.25071,-0.37606 -0.25071,-0.87747 l 0,-13.48797 q 0,-0.50142 0.27578,-0.82733 0.30084,-0.35099 0.77719,-0.35099 0.97775,0 0.97775,1.57945 0,2.18114 -0.0251,6.54342 0,4.36228 0,6.54342 0,0.50141 -0.27578,0.87747 z m -0.0251,3.43467 q -0.27578,0.32592 -0.70198,0.32592 -0.4262,0 -0.72704,-0.35099 -0.27578,-0.32592 -0.27578,-0.75212 0,-0.47634 0.27578,-0.77719 0.30084,-0.32591 0.75212,-0.32591 0.4262,0 0.70197,0.35098 0.27578,0.32592 0.27578,0.75212 0,0.45127 -0.30085,0.77719 z" id="path4426"/>
      </g>
    </a>
    <a style="opacity:0" onmouseout="document.getElementById('text4371').style.fill='#ffdd55';" onmouseover="document.getElementById('text4371').style.fill='#ffeeaa';" target="_parent" xlink:href="/price" cursor="pointer" id="a7830-6-1" transform="matrix(1,0,0,-1,51.837093,1806.137)">
      <path style="fill:url(#linearGradient4512);fill-opacity:1;fill-rule:evenodd;stroke:none;stroke-width:1px;stroke-linecap:butt;stroke-linejoin:miter;stroke-opacity:1" d="m 289.94124,773.97411 c -313.217571,-0.61056 -311.480713,1.68945 -311.480713,1.68945 l 3.381207,15.22353 8.097109,1.02874 -7.437831,1.1351 -0.480246,3.6076 -0.642856,5.3412 15.2583602,-0.4082 -14.9970872,1.3989 0.132884,11.0991 312.395683,-0.7112 -0.49553,-13.0189 -20.91412,-2.1544 20.32855,-0.9131 -0.60982,-8.42803 -1.21498,-6.7166 -14.1447,-1.31478 11.34128,-1.32826 0.91929,-0.25674 z" id="path4812-9-4-2-2" inkscape:connector-curvature="0"/>
    </a>
    <a style="opacity:0" onmouseout="document.getElementById('g4667').style.fill='#ffdd55';" onmouseover="document.getElementById('g4667').style.fill='#ffeeaa';" target="_parent" xlink:href="/often-visitors" cursor="pointer" transform="translate(-81.28334,-4.4943962)" id="a4440">
      <path style="fill:url(#linearGradient4437);fill-opacity:1;fill-rule:evenodd;stroke:none;stroke-width:1px;stroke-linecap:butt;stroke-linejoin:miter;stroke-opacity:1" d="m 421.58765,951.60798 c -313.21756,-0.6106 -313.82812,-1.8317 -313.82812,-1.8317 l 2.44224,14.9888 33.58083,2.1069 -33.89089,1.161 -0.21513,5.5552 0.76559,8.39282 15.02362,0.7656 -14.29286,2.4422 -1.04083,5.8303 314.50835,-0.9458 -3.93119,-19.53792 -12.17338,-1.4782 12.30098,0.4922 -1.91921,-6.9513 -16.25738,-0.6106 16.74034,-1.0935 1.38878,-4.7168 z" id="path4812-9-4-20" inkscape:connector-curvature="0"/>
    </a>
  </g>
</svg>
